<?xml version="1.0" encoding="utf-8"?>
<!-- Generator: Adobe Illustrator 16.0.0, SVG Export Plug-In . SVG Version: 6.00 Build 0)  -->
<!DOCTYPE svg PUBLIC "-//W3C//DTD SVG 1.0//EN" "http://www.w3.org/TR/2001/REC-SVG-20010904/DTD/svg10.dtd">
<svg version="1.0" id="Layer_1" xmlns="http://www.w3.org/2000/svg" xmlns:xlink="http://www.w3.org/1999/xlink" x="0px" y="0px"
	 width="100px" height="100px" viewBox="0 0 100 100" enable-background="new 0 0 100 100" xml:space="preserve">
<path fill="#29B6F6" d="M89.999,36.902l-4.714-4.713L70.808,46.668h-7.946c-0.313-1.213-0.791-2.349-1.413-3.401l19.193-19.192
	l-4.714-4.714L56.734,38.553c-1.051-0.62-2.191-1.101-3.402-1.413v-7.945l14.479-14.479L63.1,10.002l-9.768,9.765v-9.765h-6.666
	v9.765l-9.765-9.765l-4.713,4.713l14.479,14.479v7.943c-1.211,0.314-2.349,0.795-3.4,1.415L24.073,19.359l-4.714,4.714
	l19.191,19.191c-0.619,1.055-1.1,2.189-1.413,3.403h-7.943l-14.48-14.479l-4.713,4.713l9.767,9.766h-9.767v6.664h9.767l-9.767,9.766
	l4.713,4.715l14.479-14.479h7.942c0.314,1.211,0.795,2.353,1.414,3.401l-19.19,19.192l4.714,4.713l19.192-19.191
	c1.053,0.621,2.189,1.102,3.4,1.412v7.945L32.188,85.285L36.901,90l9.766-9.766V90h6.667v-9.766L63.1,90l4.712-4.715L53.332,70.807
	v-7.945c1.211-0.313,2.352-0.795,3.402-1.412l19.191,19.191l4.714-4.713L61.448,56.735c0.622-1.055,1.101-2.192,1.413-3.403h7.944
	l14.479,14.48l4.714-4.715l-9.766-9.766h9.766v-6.664h-9.766L89.999,36.902z M50,56.667c-3.685,0-6.667-2.983-6.667-6.666
	c0-3.685,2.981-6.667,6.667-6.667c3.682,0,6.667,2.982,6.667,6.667C56.667,53.684,53.682,56.667,50,56.667z"/>
<rect x="11.396" y="11.348" transform="matrix(-0.7072 -0.707 0.707 -0.7072 14.6831 35.4419)" fill="#29B6F6" width="6.569" height="6.665"/>
<rect x="82.031" y="11.348" transform="matrix(0.7071 -0.7071 0.7071 0.7071 14.6085 64.629)" fill="#29B6F6" width="6.574" height="6.665"/>
<polygon fill="#29B6F6" points="80.644,85.354 85.285,90 89.999,85.285 85.353,80.645 "/>
<rect x="11.394" y="81.987" transform="matrix(-0.7071 0.7071 -0.7071 -0.7071 85.3922 135.2681)" fill="#29B6F6" width="6.574" height="6.664"/>
</svg>
