<?xml version="1.0" encoding="utf-8"?>
<!-- Generator: Adobe Illustrator 16.0.0, SVG Export Plug-In . SVG Version: 6.00 Build 0)  -->
<!DOCTYPE svg PUBLIC "-//W3C//DTD SVG 1.0//EN" "http://www.w3.org/TR/2001/REC-SVG-20010904/DTD/svg10.dtd">
<svg version="1.0" id="Layer_1" xmlns="http://www.w3.org/2000/svg" xmlns:xlink="http://www.w3.org/1999/xlink" x="0px" y="0px"
	 width="100px" height="100px" viewBox="0 0 100 100" enable-background="new 0 0 100 100" xml:space="preserve">
<path fill="#BDBDBD" d="M10,27.377c10.619,0,20.756,2.145,30,5.973c5.241,2.174,10.905,3.314,16.672,3.316
	c7.364,0,13.335-5.975,13.335-13.334C70.007,15.967,64.036,10,56.672,10c-3.678,0-7.012,1.494-9.428,3.904l4.715,4.715
	c1.264-1.26,2.936-1.953,4.713-1.953c3.676,0,6.667,2.992,6.667,6.668c0,3.675-2.991,6.666-6.659,6.666
	c-4.896-0.001-9.648-0.947-14.131-2.809C32.168,22.891,21.214,20.71,10,20.71V27.377z"/>
<path fill="#BDBDBD" d="M73.333,43.334c-5.896,0-11.523,1.19-16.661,3.317C51.434,48.825,45.77,49.963,40,49.967
	C29.617,49.959,19.429,47.915,10,44v7.145c9.576,3.621,19.651,5.48,30.005,5.488c6.656-0.006,13.123-1.291,19.22-3.824
	C63.729,50.947,68.476,50,73.333,50c5.516,0,10.002,4.484,10.002,10c0,5.517-4.486,10.001-10.002,10.001
	c-5.514,0-9.998-4.484-9.998-10.001h-6.669c0,9.208,7.466,16.669,16.667,16.669c9.203,0,16.668-7.465,16.668-16.669
	C90.001,50.795,82.536,43.334,73.333,43.334z"/>
<path fill="#BDBDBD" d="M40,63.335c-3.682,0-7.015,1.494-9.427,3.906l4.713,4.713c1.259-1.26,2.935-1.953,4.714-1.953
	c3.676,0,6.667,2.992,6.667,6.668S43.675,83.335,40,83.335c-10.687,0-20.836-2.316-30-6.441v7.271C19.267,87.914,29.389,90,40,90
	c7.364,0,13.333-5.97,13.333-13.331C53.332,69.306,47.363,63.335,40,63.335z"/>
</svg>
